<?xml version="1.0" encoding="UTF-8" standalone="no"?>
<!-- Created with Inkscape (http://www.inkscape.org/) -->

<svg
   version="1.1"
   id="svg1"
   width="1254"
   height="1254"
   viewBox="0 0 1254 1254"
   sodipodi:docname="logo.svg"
   inkscape:export-filename="E:\Code\asmr-filename-gen\frontend\public\favicon-alt.svg"
   inkscape:export-xdpi="96"
   inkscape:export-ydpi="96"
   inkscape:version="1.4.4 (dcaf3e7, 2026-05-05)"
   xmlns:inkscape="http://www.inkscape.org/namespaces/inkscape"
   xmlns:sodipodi="http://sodipodi.sourceforge.net/DTD/sodipodi-0.dtd"
   xmlns="http://www.w3.org/2000/svg"
   xmlns:svg="http://www.w3.org/2000/svg">
  <defs
     id="defs1" />
  <sodipodi:namedview
     id="namedview1"
     pagecolor="#ffffff"
     bordercolor="#000000"
     borderopacity="0.25"
     inkscape:showpageshadow="2"
     inkscape:pageopacity="0.0"
     inkscape:pagecheckerboard="0"
     inkscape:deskcolor="#d1d1d1"
     inkscape:zoom="1.5430622"
     inkscape:cx="627"
     inkscape:cy="627"
     inkscape:window-width="5120"
     inkscape:window-height="2137"
     inkscape:window-x="2552"
     inkscape:window-y="-8"
     inkscape:window-maximized="1"
     inkscape:current-layer="g2" />
  <g
     inkscape:groupmode="layer"
     inkscape:label="Image"
     id="g1">
    <g
       id="g2">
      <path
         style="fill:#4acdcd"
         d="M 0,627 V 0 h 627 627 v 627 627 H 627 0 Z"
         id="path3" />
      <path
         style="fill:#11122a"
         d="M 0,627 V 0 h 627 627 v 627 627 H 627 0 Z m 639.16203,386.5761 c 9.1928,-1.7839 13.57877,-3.6209 22.05965,-9.2392 8.62086,-5.71097 15.70015,-13.6929 20.74536,-23.39043 7.70372,-14.80753 7.06604,17.48796 7.04924,-357.01149 -0.0168,-375.01075 0.65228,-342.04334 -7.25192,-357.31064 -14.23143,-27.4886 -47.43078,-40.24131 -76.56803,-29.41172 C 587.16269,243.91527 571.5631,261.45977 566.26305,281 564.59535,287.14845 564.5,305.69963 564.5,624 v 336.5 l 2.34505,8.19625 c 4.77228,16.67975 17.57683,32.32105 32.49264,39.69105 12.61341,6.2324 25.67573,7.9343 39.82434,5.1888 z m -188.533,-89.01872 c 19.18042,-6.0591 34.45033,-21.48088 40.65305,-41.05738 l 2.21792,-7 V 650 423.5 l -2.62411,-7.17615 c -13.17067,-36.01782 -53.07741,-51.97455 -87.71106,-35.07132 -10.08495,4.92205 -21.68064,16.81187 -27.06209,27.74854 -7.496,15.23406 -7.02891,-0.74515 -7.06785,241.79109 -0.0392,244.01707 -0.63459,224.99623 7.57582,242.01578 13.4241,27.8271 44.38919,41.10927 74.01832,31.74944 z m 388.01451,0.86322 c 9.52311,-2.48046 19.18835,-8.21649 26.85646,-15.93852 8.43821,-8.49755 12.99112,-15.93173 16.42568,-26.82055 L 884.5,874.5 V 651 c 0,-213.78134 -0.0798,-223.78265 -1.83518,-230 -6.55257,-23.2084 -26.22804,-41.41894 -49.16589,-45.50524 -4.39941,-0.78374 -9.7054,-1.44068 -11.79109,-1.45987 -7.02568,-0.0646 -19.15162,3.07032 -27.63069,7.14346 -15.54031,7.46519 -28.23673,23.16852 -32.5685,40.28175 -1.3228,5.22588 -1.50654,33.43617 -1.49151,229 0.0165,214.41695 0.0892,223.31053 1.88118,230.0399 2.5886,9.72096 3.55887,11.91453 8.67216,19.60602 8.79418,13.22834 22.9605,22.80304 38.92952,26.3116 8.0163,1.76127 20.14703,1.34627 29.14354,-0.99702 z M 256.45845,784.46881 c 8.63336,-2.24871 16.94364,-7.07006 23.98712,-13.91654 6.86364,-6.67168 10.57951,-12.43 14.47589,-22.4327 L 297.5,741.5 l 0.28188,-86.35125 c 0.31229,-95.66574 0.53809,-91.84091 -6.23692,-105.64875 -6.869,-13.9994 -23.47157,-26.74623 -38.43145,-29.50623 -12.81595,-2.36446 -26.69262,-0.42368 -37.52044,5.24759 -8.5754,4.49151 -20.41164,16.49564 -24.41237,24.75864 -6.46674,13.35621 -6.27336,9.94589 -5.96258,105.14875 L 185.5,741.5 l 2.70041,6.73731 c 3.81405,9.51575 7.38226,15.25012 12.96037,20.82823 8.16048,8.16048 15.55782,12.59469 25.83922,15.48888 6.39401,1.79991 22.39803,1.75339 29.45845,-0.0856 z M 1027.5,784.63729 c 15.126,-4.05066 28.7816,-15.53653 35.4467,-29.81469 2.1368,-4.57743 4.3729,-10.99275 4.9692,-14.25626 1.4513,-7.94348 1.4608,-171.19754 0.01,-177.56634 -1.4763,-6.48229 -8.1627,-19.79604 -12.4364,-24.76305 -8.9884,-10.44661 -23.927,-17.99537 -37.5183,-18.95874 -27.78046,-1.96912 -52.49739,15.66391 -59.38632,42.36613 -2.33398,9.0468 -2.39708,171.74147 -0.0702,180.89556 5.1501,20.26036 20.81529,36.82844 39.5973,41.87955 6.84887,1.84191 22.87937,1.96073 29.38767,0.21784 z"
         id="path2" />
    </g>
  </g>
</svg>
